<svg width="7" height="10" viewBox="0 0 7 10" fill="none" xmlns="http://www.w3.org/2000/svg">
<path d="M4.01738 8.21137C3.97985 8.38003 3.83024 8.5 3.65746 8.5C3.42152 8.5 3.24629 8.28148 3.29754 8.05118L4.91381 0.788625C4.95134 0.619973 5.10095 0.5 5.27372 0.5C5.50966 0.5 5.6849 0.718521 5.63364 0.948824L4.01738 8.21137ZM1.84412 8.21361C1.80687 8.38096 1.65842 8.5 1.48699 8.5C1.25288 8.5 1.079 8.28317 1.12986 8.05466L2.74739 0.786387C2.78463 0.619043 2.93308 0.5 3.10452 0.5C3.33863 0.5 3.51251 0.716826 3.46165 0.945344L1.84412 8.21361ZM5.86237 5.16179C6.05644 5.16179 6.21376 5.31911 6.21376 5.51318C6.21376 5.70725 6.05644 5.86457 5.86237 5.86457H0.351391C0.157323 5.86457 0 5.70725 0 5.51318C0 5.31911 0.157323 5.16179 0.351391 5.16179H5.86237ZM6.36603 3.10615C6.5601 3.10615 6.71742 3.26347 6.71742 3.45754C6.71742 3.65161 6.5601 3.80893 6.36603 3.80893H0.860908C0.66684 3.80893 0.509517 3.65161 0.509517 3.45754C0.509517 3.26347 0.66684 3.10615 0.860908 3.10615H6.36603Z" fill="#87969E"/>
</svg>
